<mxfile host="app.diagrams.net" modified="2023-08-12T17:08:26.969Z" agent="Mozilla/5.0 (Windows NT 10.0; Win64; x64) AppleWebKit/537.36 (KHTML, like Gecko) Chrome/114.0.0.0 Safari/537.36 OPR/100.0.0.0" etag="6AnAUIUWblIhcwR0eaVH" version="21.6.8" type="github">
  <diagram id="C5RBs43oDa-KdzZeNtuy" name="Page-1">
    <mxGraphModel dx="1199" dy="693" grid="1" gridSize="10" guides="1" tooltips="1" connect="1" arrows="1" fold="1" page="1" pageScale="1" pageWidth="827" pageHeight="1169" math="0" shadow="0">
      <root>
        <mxCell id="WIyWlLk6GJQsqaUBKTNV-0" />
        <mxCell id="WIyWlLk6GJQsqaUBKTNV-1" parent="WIyWlLk6GJQsqaUBKTNV-0" />
        <mxCell id="hpDniHsZA2WSh4xjTLs3-0" value="" style="edgeStyle=orthogonalEdgeStyle;rounded=0;orthogonalLoop=1;jettySize=auto;html=1;" edge="1" parent="WIyWlLk6GJQsqaUBKTNV-1" source="hpDniHsZA2WSh4xjTLs3-1" target="hpDniHsZA2WSh4xjTLs3-3">
          <mxGeometry relative="1" as="geometry" />
        </mxCell>
        <mxCell id="hpDniHsZA2WSh4xjTLs3-1" value="Inicio" style="ellipse;whiteSpace=wrap;html=1;" vertex="1" parent="WIyWlLk6GJQsqaUBKTNV-1">
          <mxGeometry x="215" y="60" width="90" height="60" as="geometry" />
        </mxCell>
        <mxCell id="hpDniHsZA2WSh4xjTLs3-2" value="" style="edgeStyle=orthogonalEdgeStyle;rounded=0;orthogonalLoop=1;jettySize=auto;html=1;" edge="1" parent="WIyWlLk6GJQsqaUBKTNV-1" source="hpDniHsZA2WSh4xjTLs3-3" target="hpDniHsZA2WSh4xjTLs3-8">
          <mxGeometry relative="1" as="geometry" />
        </mxCell>
        <mxCell id="hpDniHsZA2WSh4xjTLs3-3" value="n" style="shape=parallelogram;perimeter=parallelogramPerimeter;whiteSpace=wrap;html=1;fixedSize=1;" vertex="1" parent="WIyWlLk6GJQsqaUBKTNV-1">
          <mxGeometry x="207.5" y="160" width="105" height="50" as="geometry" />
        </mxCell>
        <mxCell id="hpDniHsZA2WSh4xjTLs3-4" value="" style="edgeStyle=orthogonalEdgeStyle;rounded=0;orthogonalLoop=1;jettySize=auto;html=1;" edge="1" parent="WIyWlLk6GJQsqaUBKTNV-1" source="hpDniHsZA2WSh4xjTLs3-8" target="hpDniHsZA2WSh4xjTLs3-10">
          <mxGeometry relative="1" as="geometry" />
        </mxCell>
        <mxCell id="hpDniHsZA2WSh4xjTLs3-5" value="Sim" style="edgeLabel;html=1;align=center;verticalAlign=middle;resizable=0;points=[];" vertex="1" connectable="0" parent="hpDniHsZA2WSh4xjTLs3-4">
          <mxGeometry x="-0.046" y="2" relative="1" as="geometry">
            <mxPoint as="offset" />
          </mxGeometry>
        </mxCell>
        <mxCell id="hpDniHsZA2WSh4xjTLs3-6" value="" style="edgeStyle=orthogonalEdgeStyle;rounded=0;orthogonalLoop=1;jettySize=auto;html=1;" edge="1" parent="WIyWlLk6GJQsqaUBKTNV-1" source="hpDniHsZA2WSh4xjTLs3-8" target="hpDniHsZA2WSh4xjTLs3-12">
          <mxGeometry relative="1" as="geometry" />
        </mxCell>
        <mxCell id="hpDniHsZA2WSh4xjTLs3-7" value="Não" style="edgeLabel;html=1;align=center;verticalAlign=middle;resizable=0;points=[];" vertex="1" connectable="0" parent="hpDniHsZA2WSh4xjTLs3-6">
          <mxGeometry x="-0.5459" y="-2" relative="1" as="geometry">
            <mxPoint as="offset" />
          </mxGeometry>
        </mxCell>
        <mxCell id="hpDniHsZA2WSh4xjTLs3-8" value="n&amp;lt;0" style="rhombus;whiteSpace=wrap;html=1;" vertex="1" parent="WIyWlLk6GJQsqaUBKTNV-1">
          <mxGeometry x="220" y="260" width="80" height="80" as="geometry" />
        </mxCell>
        <mxCell id="hpDniHsZA2WSh4xjTLs3-9" value="" style="edgeStyle=orthogonalEdgeStyle;rounded=0;orthogonalLoop=1;jettySize=auto;html=1;" edge="1" parent="WIyWlLk6GJQsqaUBKTNV-1" source="hpDniHsZA2WSh4xjTLs3-10" target="hpDniHsZA2WSh4xjTLs3-13">
          <mxGeometry relative="1" as="geometry" />
        </mxCell>
        <mxCell id="hpDniHsZA2WSh4xjTLs3-10" value="&quot;n não é um número natural&quot;" style="shape=document;whiteSpace=wrap;html=1;boundedLbl=1;" vertex="1" parent="WIyWlLk6GJQsqaUBKTNV-1">
          <mxGeometry x="355" y="270" width="100" height="60" as="geometry" />
        </mxCell>
        <mxCell id="hpDniHsZA2WSh4xjTLs3-11" value="" style="edgeStyle=orthogonalEdgeStyle;rounded=0;orthogonalLoop=1;jettySize=auto;html=1;" edge="1" parent="WIyWlLk6GJQsqaUBKTNV-1" source="hpDniHsZA2WSh4xjTLs3-12" target="hpDniHsZA2WSh4xjTLs3-15">
          <mxGeometry relative="1" as="geometry" />
        </mxCell>
        <mxCell id="hpDniHsZA2WSh4xjTLs3-12" value="f = n!" style="rounded=0;whiteSpace=wrap;html=1;" vertex="1" parent="WIyWlLk6GJQsqaUBKTNV-1">
          <mxGeometry x="200" y="410" width="120" height="60" as="geometry" />
        </mxCell>
        <mxCell id="hpDniHsZA2WSh4xjTLs3-13" value="Fim" style="ellipse;whiteSpace=wrap;html=1;" vertex="1" parent="WIyWlLk6GJQsqaUBKTNV-1">
          <mxGeometry x="505" y="270" width="90" height="60" as="geometry" />
        </mxCell>
        <mxCell id="hpDniHsZA2WSh4xjTLs3-14" value="" style="edgeStyle=orthogonalEdgeStyle;rounded=0;orthogonalLoop=1;jettySize=auto;html=1;" edge="1" parent="WIyWlLk6GJQsqaUBKTNV-1" source="hpDniHsZA2WSh4xjTLs3-15" target="hpDniHsZA2WSh4xjTLs3-16">
          <mxGeometry relative="1" as="geometry" />
        </mxCell>
        <mxCell id="hpDniHsZA2WSh4xjTLs3-15" value="n! = f" style="shape=document;whiteSpace=wrap;html=1;boundedLbl=1;" vertex="1" parent="WIyWlLk6GJQsqaUBKTNV-1">
          <mxGeometry x="210" y="510" width="100" height="60" as="geometry" />
        </mxCell>
        <mxCell id="hpDniHsZA2WSh4xjTLs3-16" value="Fim" style="ellipse;whiteSpace=wrap;html=1;" vertex="1" parent="WIyWlLk6GJQsqaUBKTNV-1">
          <mxGeometry x="215" y="620" width="90" height="60" as="geometry" />
        </mxCell>
      </root>
    </mxGraphModel>
  </diagram>
</mxfile>
